<?xml version="1.0" encoding="UTF-8"?>
<svg width="100" height="100" enable-background="new -0.147 -0.063 100 100" version="1.1" viewBox="-.147 -.063 100 100" xml:space="preserve" xmlns="http://www.w3.org/2000/svg" xmlns:cc="http://creativecommons.org/ns#" xmlns:dc="http://purl.org/dc/elements/1.1/" xmlns:osb="http://www.openswatchbook.org/uri/2009/osb" xmlns:rdf="http://www.w3.org/1999/02/22-rdf-syntax-ns#"><metadata><rdf:RDF><cc:Work rdf:about=""><dc:format>image/svg+xml</dc:format><dc:type rdf:resource="http://purl.org/dc/dcmitype/StillImage"/><dc:title/></cc:Work></rdf:RDF></metadata><g transform="translate(0,-25)"><g transform="translate(0 -.64906)" fill="#fff"><path transform="translate(0,25)" d="m49.846 65.064c-7.042 0-12.904-5.028-14.204-11.689h-35.643c1.447 26.281 23.213 47.147 49.853 47.147 26.644 0 48.407-20.866 49.854-47.147h-35.658c-1.299 6.661-7.16 11.689-14.202 11.689z"/><circle transform="translate(0,25)" cx="49.853" cy="50.587" r="10.341"/><path transform="translate(-.147 25.586)" d="m50 0.064453c-26.64 0-48.407 20.866-49.854 47.148h35.643c1.3-6.661 7.1641-11.689 14.205-11.689 7.042 0 12.901 5.0285 14.201 11.689h35.658c-1.446-26.282-23.209-47.148-49.854-47.148zm-8.4824 8.8516c3.0902 0 5.4312 1.1887 6.9785 3.5645l1.5039 2.5215 1.5039-2.5215c1.547-2.3758 3.888-3.5645 6.9785-3.5645 2.6706 0 4.8216 0.93805 6.4648 2.7695 1.5929 1.8315 2.3867 4.3086 2.3867 7.4238v15.242h-6.0391v-14.795c0-3.1186-1.3128-4.7012-3.9375-4.7012-2.902 0-4.3555 1.8769-4.3555 5.5898v8.0977h-6.0039v-8.0977c0-3.713-1.4535-5.5898-4.3555-5.5898-2.6247 0-3.9375 1.5825-3.9375 4.7012v14.795h-6.0391v-15.242c0-3.1152 0.79348-5.5924 2.3867-7.4238 1.643-1.8315 3.7939-2.7695 6.4648-2.7695z"/></g></g></svg>
